ply
format ascii 1.0
comment Created by Blender 2.66 (sub 1) - www.blender.org, source file: 'well.coveredopen.blend'
element vertex 447
property float x
property float y
property float z
property float nx
property float ny
property float nz
property float s
property float t
element face 249
property list uchar uint vertex_indices
end_header
-1.012613 -0.044740 2.325337 -0.609973 -0.765404 0.205084 0.965578 0.250150
-1.012613 0.044740 2.301361 -0.609973 0.765404 -0.205084 0.969957 0.257719
-1.012613 0.011988 2.268610 -0.609973 0.205084 -0.765404 0.965585 0.257723
-1.012613 -0.032752 2.280597 -0.609973 -0.560289 -0.560289 0.963396 0.253938
-1.012613 -0.011988 2.358089 -0.609973 -0.205084 0.765404 0.969950 0.250146
-1.012613 0.032752 2.346101 -0.609973 0.560289 0.560289 0.972139 0.253930
-1.012613 0.032752 2.346101 -0.609973 0.560289 0.560289 0.916437 0.273845
-0.906935 0.032752 2.346101 0.000000 0.707083 0.707083 0.916437 0.263611
-0.906935 0.044740 2.301361 0.000000 0.965911 -0.258797 0.920353 0.263611
-1.012613 0.044740 2.301361 -0.609973 0.765404 -0.205084 0.920353 0.273845
-0.906935 0.011988 2.268610 0.000000 0.258797 -0.965911 0.924271 0.263611
-1.012613 0.011988 2.268610 -0.609973 0.205084 -0.765404 0.924271 0.273845
-0.906935 -0.032752 2.280597 0.000000 -0.707083 -0.707083 0.928188 0.263611
-1.012613 -0.032752 2.280597 -0.609973 -0.560289 -0.560289 0.928188 0.273845
-0.906935 -0.044740 2.325337 0.000000 -0.965911 0.258797 0.932105 0.263611
-1.012613 -0.044740 2.325337 -0.609973 -0.765404 0.205084 0.932105 0.273845
-0.906935 -0.011988 2.358089 0.000000 -0.258797 0.965911 0.912520 0.263611
-1.012613 -0.011988 2.358089 -0.609973 -0.205084 0.765404 0.912520 0.273845
-1.012613 -0.044740 2.325337 -0.609973 -0.765404 0.205084 0.908603 0.273845
-0.906935 -0.044740 2.325337 0.000000 -0.965911 0.258797 0.908603 0.263611
0.910070 0.294727 2.392643 -0.653218 0.731346 0.195959 0.679366 0.229209
0.910070 0.215755 2.529427 -0.653218 0.535386 0.535386 0.686995 0.229206
0.957126 0.215755 2.529427 0.653218 0.535386 0.535386 0.686996 0.234561
0.957126 0.294727 2.392643 0.653218 0.731346 0.195959 0.679366 0.234564
0.910070 0.294727 2.234699 -0.653218 0.731346 -0.195959 0.671736 0.229209
0.957126 0.294727 2.234699 0.653218 0.731346 -0.195959 0.671735 0.234565
0.957126 0.215755 2.097916 0.653218 0.535386 -0.535386 0.664105 0.234562
0.910070 0.215755 2.097916 -0.653218 0.535386 -0.535386 0.664105 0.229206
0.910070 0.078972 2.018944 -0.653218 0.195959 -0.731346 0.656474 0.229200
0.957126 0.078972 2.018944 0.653218 0.195959 -0.731346 0.656473 0.234557
0.910070 -0.078972 2.018944 -0.653218 -0.195959 -0.731346 0.648840 0.229194
0.957126 -0.078972 2.018944 0.653218 -0.195959 -0.731346 0.648840 0.234552
0.957126 -0.215756 2.097916 0.653218 -0.535386 -0.535386 0.641205 0.234547
0.910070 -0.215756 2.097916 -0.653218 -0.535386 -0.535386 0.641205 0.229188
0.957126 -0.294728 2.234699 0.653218 -0.731346 -0.195959 0.633568 0.234545
0.910070 -0.294728 2.234699 -0.653218 -0.731346 -0.195959 0.633568 0.229184
0.910070 -0.294728 2.392643 -0.653218 -0.731346 0.195959 0.625930 0.229186
0.957126 -0.294728 2.392643 0.653218 -0.731346 0.195959 0.625930 0.234547
0.910070 -0.215756 2.529427 -0.653218 -0.535386 0.535386 0.618291 0.229192
0.957126 -0.215756 2.529427 0.653218 -0.535386 0.535386 0.618292 0.234553
0.910070 -0.078972 2.608399 -0.653218 -0.195959 0.731346 0.610653 0.229198
0.957126 -0.078972 2.608399 0.653218 -0.195959 0.731346 0.610653 0.234559
0.910070 0.078972 2.608399 -0.653218 0.195959 0.731346 0.603014 0.229204
0.957126 0.078972 2.608399 0.653218 0.195959 0.731346 0.603015 0.234565
0.910070 0.078972 2.608399 -0.653218 0.195959 0.731346 0.694625 0.229202
0.957126 0.078972 2.608399 0.653218 0.195959 0.731346 0.694625 0.234557
0.957126 0.294727 2.392643 0.653218 0.731346 0.195959 0.873626 0.378192
0.957126 -0.294728 2.392643 0.653218 -0.731346 0.195959 0.788962 0.378192
0.957126 -0.294728 2.234699 0.653218 -0.731346 -0.195959 0.788962 0.355506
0.957126 0.294727 2.234699 0.653218 0.731346 -0.195959 0.873626 0.355506
0.957126 0.215755 2.529427 0.653218 0.535386 0.535386 0.862283 0.397838
0.957126 -0.215756 2.529427 0.653218 -0.535386 0.535386 0.800305 0.397838
0.957126 0.078972 2.608399 0.653218 0.195959 0.731346 0.842637 0.409181
0.957126 -0.078972 2.608399 0.653218 -0.195959 0.731346 0.819951 0.409181
0.910070 0.215755 2.529427 -0.653218 0.535386 0.535386 0.676025 0.066700
0.910070 -0.215756 2.529427 -0.653218 -0.535386 0.535386 0.619311 0.066700
0.910070 -0.078972 2.608399 -0.653218 -0.195959 0.731346 0.637289 0.056320
0.910070 0.078972 2.608399 -0.653218 0.195959 0.731346 0.658048 0.056320
0.910070 0.294727 2.392643 -0.653218 0.731346 0.195959 0.686405 0.084677
0.910070 -0.294728 2.392643 -0.653218 -0.731346 0.195959 0.608932 0.084677
0.910070 0.294727 2.234699 -0.653218 0.731346 -0.195959 0.686405 0.105436
0.910070 -0.294728 2.234699 -0.653218 -0.731346 -0.195959 0.608932 0.105436
0.910070 0.215755 2.097916 -0.653218 0.535386 -0.535386 0.676025 0.123414
0.910070 -0.215756 2.097916 -0.653218 -0.535386 -0.535386 0.619311 0.123414
0.910070 0.078972 2.018944 -0.653218 0.195959 -0.731346 0.657798 0.131549
0.910070 -0.078972 2.018944 -0.653218 -0.195959 -0.731346 0.637788 0.131549
0.957126 -0.215756 2.097916 0.653218 -0.535386 -0.535386 0.800305 0.335860
0.957126 0.215755 2.097916 0.653218 0.535386 -0.535386 0.862283 0.335860
0.957126 -0.078972 2.018944 0.653218 -0.195959 -0.731346 0.819951 0.324517
0.957126 0.078972 2.018944 0.653218 0.195959 -0.731346 0.842637 0.324517
0.958430 0.023781 2.064348 0.000000 0.965911 -0.258797 0.667484 0.207494
0.958430 0.017409 2.088129 0.000000 0.707083 0.707083 0.664504 0.207120
1.091604 0.017409 2.088129 -0.538469 0.595813 0.595813 0.666706 0.187548
1.091604 0.023781 2.064348 -0.538469 0.813929 -0.218085 0.670365 0.188188
0.958430 0.006372 2.046939 0.000000 0.258797 -0.965911 0.670437 0.207997
1.091604 0.006372 2.046939 -0.538469 0.218085 -0.813898 0.674179 0.189266
0.958430 -0.017409 2.053311 0.000000 -0.707083 -0.707083 0.673339 0.208613
1.091604 -0.017409 2.053311 -0.538469 -0.595813 -0.595813 0.677835 0.190302
0.958430 -0.023781 2.077092 0.000000 -0.965911 0.258797 0.676186 0.209333
1.091604 -0.023781 2.077092 -0.538469 -0.813929 0.218085 0.680820 0.192185
0.958430 -0.006372 2.094501 0.000000 -0.258797 0.965911 0.661486 0.206862
0.958430 -0.023781 2.077092 0.000000 -0.965911 0.258797 0.658105 0.206638
1.091604 -0.023781 2.077092 -0.538469 -0.813929 0.218085 0.659316 0.188352
1.091604 -0.006372 2.094501 -0.538469 -0.218085 0.813898 0.662986 0.187705
1.095608 0.021500 2.092220 -0.412244 0.644215 0.644185 0.666759 0.186754
1.095608 0.029370 2.062850 -0.412244 0.880001 -0.235786 0.670518 0.187243
1.095608 0.007869 2.041349 -0.412244 0.235786 -0.880001 0.674490 0.188209
1.095608 -0.021501 2.049219 -0.412244 -0.644215 -0.644185 0.678198 0.189528
1.095608 -0.029371 2.078589 -0.412244 -0.880001 0.235786 0.681695 0.191573
1.095608 -0.029371 2.078589 -0.412244 -0.880001 0.235786 0.658774 0.187616
1.095608 -0.007870 2.100090 -0.412244 -0.235786 0.880001 0.662881 0.186698
1.123188 0.021500 2.092220 0.609973 0.560289 0.560289 0.667200 0.182956
1.123188 0.029370 2.062850 0.609973 0.765404 -0.205084 0.671453 0.183554
1.123188 0.007869 2.041349 0.609973 0.205084 -0.765404 0.675776 0.184640
1.123188 -0.021501 2.049219 0.609973 -0.560289 -0.560289 0.679829 0.186284
1.123188 -0.029371 2.078589 0.609973 -0.765404 0.205084 0.683485 0.188257
1.123188 -0.029371 2.078589 0.609973 -0.765404 0.205084 0.658105 0.183341
1.123188 -0.007870 2.100090 0.609973 -0.205084 0.765404 0.662787 0.182797
1.123188 0.021500 2.092220 0.609973 0.560289 0.560289 0.686902 0.181926
1.123188 -0.007870 2.100090 0.609973 -0.205084 0.765404 0.687021 0.186078
1.123188 0.007869 2.041349 0.609973 0.205084 -0.765404 0.679710 0.182132
1.123188 0.029370 2.062850 0.609973 0.765404 -0.205084 0.683247 0.179953
0.763129 0.044740 2.301684 0.000000 0.965911 -0.258797 0.832698 0.033426
-0.765289 0.044740 2.301684 0.000000 0.965911 -0.258797 0.832698 0.251857
-0.765289 0.032752 2.346423 0.000000 0.707083 0.707083 0.828835 0.251857
0.763129 0.032752 2.346423 0.000000 0.707083 0.707083 0.828835 0.033426
0.763129 0.011988 2.268932 0.000000 0.258797 -0.965911 0.836561 0.033426
-0.765289 0.011988 2.268932 0.000000 0.258797 -0.965911 0.836561 0.251857
0.763129 -0.032752 2.280920 0.000000 -0.707083 -0.707083 0.840424 0.033426
-0.765289 -0.032752 2.280920 0.000000 -0.707083 -0.707083 0.840424 0.251857
0.763129 -0.044740 2.325660 0.000000 -0.965911 0.258797 0.844287 0.033426
-0.765289 -0.044740 2.325660 0.000000 -0.965911 0.258797 0.844287 0.251857
0.763129 -0.011988 2.358411 0.000000 -0.258797 0.965911 0.824972 0.033426
-0.765289 -0.011988 2.358411 0.000000 -0.258797 0.965911 0.824972 0.251857
-0.765289 -0.044740 2.325660 0.000000 -0.965911 0.258797 0.821109 0.251857
0.763129 -0.044740 2.325660 0.000000 -0.965911 0.258797 0.821109 0.033426
0.719416 0.494441 0.000000 0.824122 0.566393 0.000000 0.378579 0.630105
0.475439 0.732112 0.000000 0.544633 0.838649 0.000000 0.439125 0.630105
0.475439 0.732112 1.000000 0.544633 0.838649 0.000000 0.439126 0.807865
0.719416 0.494441 1.000000 0.824122 0.566393 0.000000 0.378579 0.807865
0.853868 0.181495 0.000000 0.978118 0.207892 0.000000 0.318033 0.630105
0.853868 0.181495 1.000000 0.978118 0.207892 0.000000 0.318033 0.807865
0.858326 -0.159081 0.000000 0.983245 -0.182226 0.000000 0.257487 0.630105
0.858326 -0.159081 1.000000 0.983245 -0.182226 0.000000 0.257487 0.807865
0.732112 -0.475439 0.000000 0.838649 -0.544633 0.000000 0.196941 0.630105
0.732112 -0.475439 1.000000 0.838649 -0.544633 0.000000 0.196941 0.807865
0.494441 -0.719415 0.000000 0.566393 -0.824122 0.000000 0.136395 0.630105
0.494441 -0.719415 1.000000 0.566393 -0.824122 0.000000 0.136395 0.807865
0.181495 -0.853868 0.000000 0.207892 -0.978118 0.000000 0.075849 0.630105
0.181495 -0.853868 1.000000 0.207892 -0.978118 0.000000 0.075849 0.807865
-0.159081 -0.858326 0.000000 -0.182226 -0.983245 0.000000 0.015302 0.630105
-0.159081 -0.858326 1.000000 -0.182226 -0.983245 0.000000 0.015302 0.807865
-0.475439 -0.732112 0.000000 -0.544633 -0.838649 0.000000 0.923493 0.630101
-0.159081 -0.858326 0.000000 -0.182226 -0.983245 0.000000 0.984039 0.630101
-0.159081 -0.858326 1.000000 -0.182226 -0.983245 0.000000 0.984040 0.807860
-0.475439 -0.732112 1.000000 -0.544633 -0.838649 0.000000 0.923494 0.807861
-0.719415 -0.494441 0.000000 -0.824122 -0.566393 0.000000 0.862947 0.630102
-0.719415 -0.494441 1.000000 -0.824122 -0.566393 0.000000 0.862948 0.807862
-0.853867 -0.181495 0.000000 -0.978118 -0.207892 0.000000 0.802401 0.630102
-0.853867 -0.181495 1.000000 -0.978118 -0.207892 0.000000 0.802402 0.807862
-0.858326 0.159081 0.000000 -0.983245 0.182226 0.000000 0.741855 0.630103
-0.858326 0.159081 1.000000 -0.983245 0.182226 0.000000 0.741856 0.807863
-0.732112 0.475439 0.000000 -0.838649 0.544633 0.000000 0.681309 0.630103
-0.732112 0.475439 1.000000 -0.838649 0.544633 0.000000 0.681310 0.807863
-0.494440 0.719416 0.000000 -0.566393 0.824122 0.000000 0.620763 0.630104
-0.494440 0.719416 1.000000 -0.566393 0.824122 0.000000 0.620764 0.807864
-0.181495 0.853868 0.000000 -0.207892 0.978118 0.000000 0.560217 0.630104
-0.181495 0.853868 1.000000 -0.207892 0.978118 0.000000 0.560218 0.807864
0.159082 0.858326 0.000000 0.182226 0.983245 0.000000 0.499671 0.630104
0.159082 0.858326 1.000000 0.182226 0.983245 0.000000 0.499672 0.807865
0.383597 0.590688 0.997015 -0.544633 -0.838649 0.000000 0.382007 0.622557
0.383597 0.590688 0.009845 -0.544633 -0.838649 0.000000 0.382007 0.476609
0.580444 0.398928 0.009845 -0.824122 -0.566393 0.000000 0.422636 0.476609
0.580444 0.398928 0.997015 -0.824122 -0.566393 0.000000 0.422636 0.622557
0.688924 0.146435 0.009845 -0.978118 -0.207892 0.000000 0.463266 0.476609
0.688924 0.146435 0.997015 -0.978118 -0.207892 0.000000 0.463265 0.622557
0.692521 -0.128351 0.009845 -0.983245 0.182226 0.000000 0.503895 0.476609
0.692521 -0.128351 0.997015 -0.983245 0.182226 0.000000 0.503895 0.622558
0.590688 -0.383597 0.009845 -0.838649 0.544633 0.000000 0.544525 0.476609
0.590688 -0.383597 0.997015 -0.838649 0.544633 0.000000 0.544524 0.622558
0.398928 -0.580444 0.009845 -0.566393 0.824122 0.000000 0.585154 0.476609
0.398928 -0.580444 0.997015 -0.566393 0.824122 0.000000 0.585154 0.622558
0.146435 -0.688924 0.009845 -0.207892 0.978118 0.000000 0.625784 0.476609
0.146435 -0.688924 0.997015 -0.207892 0.978118 0.000000 0.625783 0.622558
-0.128351 -0.692521 0.009845 0.182226 0.983245 0.000000 0.666413 0.476610
-0.128351 -0.692521 0.997015 0.182226 0.983245 0.000000 0.666412 0.622558
-0.128351 -0.692521 0.997015 0.182226 0.983245 0.000000 0.016342 0.622559
-0.128351 -0.692521 0.009845 0.182226 0.983245 0.000000 0.016341 0.476609
-0.383597 -0.590688 0.009845 0.544633 0.838649 0.000000 0.056971 0.476609
-0.383597 -0.590688 0.997015 0.544633 0.838649 0.000000 0.056972 0.622558
-0.580444 -0.398928 0.009845 0.824122 0.566393 0.000000 0.097600 0.476609
-0.580444 -0.398928 0.997015 0.824122 0.566393 0.000000 0.097601 0.622558
-0.688924 -0.146435 0.009845 0.978118 0.207892 0.000000 0.138230 0.476609
-0.688924 -0.146435 0.997015 0.978118 0.207892 0.000000 0.138231 0.622558
-0.692521 0.128351 0.009845 0.983245 -0.182226 0.000000 0.178859 0.476609
-0.692521 0.128351 0.997015 0.983245 -0.182226 0.000000 0.178860 0.622557
-0.590688 0.383597 0.009845 0.838649 -0.544633 0.000000 0.219489 0.476609
-0.590688 0.383597 0.997015 0.838649 -0.544633 0.000000 0.219490 0.622557
-0.398928 0.580444 0.009845 0.566393 -0.824122 0.000000 0.260119 0.476608
-0.398928 0.580444 0.997015 0.566393 -0.824122 0.000000 0.260119 0.622557
-0.146435 0.688924 0.009845 0.207892 -0.978118 0.000000 0.300748 0.476608
-0.146435 0.688924 0.997015 0.207892 -0.978118 0.000000 0.300748 0.622557
0.128352 0.692521 0.009845 -0.182226 -0.983245 0.000000 0.341378 0.476609
0.128352 0.692521 0.997015 -0.182226 -0.983245 0.000000 0.341377 0.622557
0.719416 0.494441 1.000000 0.093204 0.064058 -0.993561 0.076709 0.841247
0.475439 0.732112 1.000000 0.061586 0.094852 -0.993561 0.134782 0.841247
0.535208 0.824148 1.012492 0.266549 0.410443 -0.872036 0.134782 0.861368
0.809856 0.556598 1.012492 0.403333 0.277200 -0.872036 0.076709 0.861368
0.961210 0.204311 1.012492 0.478713 0.101749 -0.872036 0.016880 0.860481
0.853868 0.181495 1.000000 0.110599 0.023499 -0.993561 0.015548 0.841247
0.961210 0.204311 1.012492 0.478713 0.101749 -0.872036 0.984658 0.861368
0.966229 -0.179080 1.012492 0.481216 -0.089175 -0.872036 0.933556 0.861368
0.858326 -0.159081 1.000000 0.111179 -0.020600 -0.993561 0.933556 0.841247
0.853868 0.181495 1.000000 0.110599 0.023499 -0.993561 0.984658 0.841247
0.824148 -0.535208 1.012492 0.410443 -0.266549 -0.872036 0.878813 0.861368
0.732112 -0.475439 1.000000 0.094852 -0.061586 -0.993561 0.878813 0.841247
0.556598 -0.809856 1.012492 0.277200 -0.403333 -0.872036 0.821691 0.861368
0.494441 -0.719415 1.000000 0.064058 -0.093204 -0.993561 0.821691 0.841247
0.204312 -0.961210 1.012492 0.101749 -0.478713 -0.872036 0.762420 0.861368
0.181495 -0.853868 1.000000 0.023499 -0.110599 -0.993561 0.762420 0.841247
-0.179080 -0.966229 1.012492 -0.089175 -0.481216 -0.872036 0.701813 0.861368
-0.159081 -0.858326 1.000000 -0.020600 -0.111179 -0.993561 0.701813 0.841247
-0.535208 -0.824148 1.012492 -0.266549 -0.410443 -0.872036 0.638500 0.861368
-0.475439 -0.732112 1.000000 -0.061586 -0.094852 -0.993561 0.638500 0.841247
-0.809856 -0.556598 1.012492 -0.403333 -0.277200 -0.872036 0.574147 0.861368
-0.719415 -0.494441 1.000000 -0.093204 -0.064058 -0.993561 0.574147 0.841247
-0.961210 -0.204312 1.012492 -0.478713 -0.101749 -0.872036 0.506685 0.861368
-0.853867 -0.181495 1.000000 -0.110599 -0.023499 -0.993561 0.506685 0.841247
-0.966229 0.179080 1.012492 -0.481216 0.089175 -0.872036 0.443127 0.861368
-0.858326 0.159081 1.000000 -0.111179 0.020600 -0.993561 0.443127 0.841247
-0.824148 0.535208 1.012492 -0.410443 0.266549 -0.872036 0.380371 0.861368
-0.732112 0.475439 1.000000 -0.094852 0.061586 -0.993561 0.380371 0.841247
-0.556598 0.809856 1.012492 -0.277200 0.403333 -0.872036 0.316642 0.861368
-0.494440 0.719416 1.000000 -0.064058 0.093204 -0.993561 0.316642 0.841247
-0.204311 0.961210 1.012492 -0.101749 0.478713 -0.872036 0.255094 0.861368
-0.181495 0.853868 1.000000 -0.023499 0.110599 -0.993561 0.255094 0.841247
0.179081 0.966229 1.012492 0.089175 0.481216 -0.872036 0.193949 0.861368
0.159082 0.858326 1.000000 0.020600 0.111179 -0.993561 0.193949 0.841247
0.545108 0.839393 1.300477 0.505753 0.778802 0.370952 0.134782 0.901003
0.824836 0.566894 1.300477 0.765313 0.525986 0.370952 0.076709 0.901003
0.824836 0.566894 1.032509 0.773186 0.531388 -0.346110 0.076709 0.868868
0.545108 0.839393 1.032509 0.510971 0.786828 -0.346110 0.134782 0.868868
0.978991 0.208091 1.300477 0.908322 0.193060 0.370952 0.016436 0.901003
0.978991 0.208091 1.032509 0.917661 0.195044 -0.346110 0.016880 0.868573
0.978991 0.208091 1.300477 0.908322 0.193060 0.370952 0.984658 0.901003
0.984102 -0.182393 1.300477 0.913083 -0.169225 0.370952 0.933556 0.901003
0.984102 -0.182393 1.032509 0.922452 -0.170965 -0.346110 0.933556 0.868868
0.978991 0.208091 1.032509 0.917661 0.195044 -0.346110 0.984658 0.868868
0.839393 -0.545108 1.300477 0.778802 -0.505753 0.370952 0.878813 0.901003
0.839393 -0.545108 1.032509 0.786828 -0.510971 -0.346110 0.878813 0.868868
0.566895 -0.824837 1.300477 0.525986 -0.765313 0.370952 0.821691 0.901003
0.566895 -0.824837 1.032509 0.531388 -0.773186 -0.346110 0.821691 0.868868
0.208091 -0.978991 1.300477 0.193060 -0.908322 0.370952 0.762420 0.901003
0.208091 -0.978991 1.032509 0.195044 -0.917661 -0.346110 0.762420 0.868868
-0.182392 -0.984103 1.300477 -0.169225 -0.913083 0.370952 0.701813 0.901003
-0.182392 -0.984103 1.032509 -0.170965 -0.922452 -0.346110 0.701813 0.868868
-0.545108 -0.839394 1.300477 -0.505753 -0.778802 0.370952 0.638500 0.901003
-0.545108 -0.839394 1.032509 -0.510971 -0.786828 -0.346110 0.638500 0.868868
-0.824836 -0.566895 1.300477 -0.765313 -0.525986 0.370952 0.574147 0.901003
-0.824836 -0.566895 1.032509 -0.773186 -0.531388 -0.346110 0.574147 0.868868
-0.978991 -0.208091 1.300477 -0.908322 -0.193060 0.370952 0.506685 0.901003
-0.978991 -0.208091 1.032509 -0.917661 -0.195044 -0.346110 0.506685 0.868868
-0.984102 0.182393 1.300477 -0.913083 0.169225 0.370952 0.443127 0.901003
-0.984102 0.182393 1.032509 -0.922452 0.170965 -0.346110 0.443127 0.868868
-0.839393 0.545109 1.300477 -0.778802 0.505753 0.370952 0.380371 0.901003
-0.839393 0.545109 1.032509 -0.786828 0.510971 -0.346110 0.380371 0.868868
-0.566894 0.824837 1.300477 -0.525986 0.765313 0.370952 0.316642 0.901003
-0.566894 0.824837 1.032509 -0.531388 0.773186 -0.346110 0.316642 0.868868
-0.208090 0.978991 1.300477 -0.193060 0.908322 0.370952 0.255094 0.901003
-0.208090 0.978991 1.032509 -0.195044 0.917661 -0.346110 0.255094 0.868868
0.182393 0.984102 1.300477 0.169225 0.913083 0.370952 0.193949 0.901003
0.182393 0.984102 1.032509 0.170965 0.922452 -0.346110 0.193949 0.868868
0.795907 0.547012 1.334905 0.343822 0.236305 0.908780 0.076709 0.911667
0.525990 0.809954 1.334905 0.227210 0.349895 0.908780 0.134782 0.911667
0.383597 0.590688 1.334905 -0.357891 -0.551103 0.753746 0.134782 0.948924
0.580444 0.398928 1.334905 -0.541551 -0.372204 0.753746 0.076709 0.948924
0.944655 0.200793 1.334905 0.408094 0.086734 0.908780 0.016436 0.911667
0.688924 0.146435 1.334905 -0.648549 -0.149968 0.746239 0.017028 0.948924
0.809954 -0.525990 1.334905 0.346141 -0.219214 0.912198 0.878813 0.911667
0.949587 -0.175996 1.334905 0.397931 -0.086032 0.913327 0.935559 0.911247
0.703768 -0.127359 1.318011 -0.670919 0.100864 0.734611 0.933556 0.948924
0.590688 -0.383597 1.334905 -0.545061 0.372478 0.751061 0.878813 0.948924
0.547012 -0.795907 1.334905 0.236305 -0.343822 0.908780 0.821691 0.911667
0.398928 -0.580444 1.334905 -0.372204 0.541551 0.753746 0.821691 0.948924
0.200793 -0.944655 1.334905 0.086734 -0.408094 0.908780 0.762420 0.911667
0.146435 -0.688924 1.334905 -0.136601 0.642781 0.753746 0.762420 0.948924
-0.175995 -0.949587 1.334905 -0.076022 -0.410230 0.908780 0.701813 0.911667
-0.128351 -0.692521 1.334905 0.119724 0.646107 0.753746 0.701813 0.948924
-0.525990 -0.809954 1.334905 -0.227210 -0.349895 0.908780 0.638500 0.911667
-0.383597 -0.590688 1.334905 0.357891 0.551103 0.753746 0.638500 0.948924
-0.795907 -0.547012 1.334905 -0.343822 -0.236305 0.908780 0.574147 0.911667
-0.580444 -0.398928 1.334905 0.541551 0.372204 0.753746 0.574147 0.948924
-0.944655 -0.200793 1.334905 -0.408094 -0.086734 0.908780 0.505616 0.911229
-0.688924 -0.146435 1.334905 0.642781 0.136601 0.753746 0.506685 0.948924
-0.809953 0.525990 1.334905 -0.349895 0.227210 0.908780 0.380371 0.911667
-0.949587 0.175996 1.334905 -0.410230 0.076022 0.908780 0.446723 0.911287
-0.692521 0.128351 1.334905 0.646107 -0.119724 0.753746 0.443127 0.948924
-0.590688 0.383597 1.334905 0.551103 -0.357891 0.753746 0.380371 0.948924
-0.547011 0.795908 1.334905 -0.236305 0.343822 0.908780 0.316642 0.911667
-0.398928 0.580444 1.334905 0.372204 -0.541551 0.753746 0.316642 0.948924
-0.200792 0.944655 1.334905 -0.086734 0.408094 0.908780 0.255094 0.911667
-0.146435 0.688924 1.334905 0.136601 -0.642781 0.753746 0.255094 0.948924
0.175996 0.949587 1.334905 0.076022 0.410230 0.908780 0.193949 0.911667
0.128352 0.692521 1.334905 -0.119755 -0.646107 0.753746 0.193949 0.948924
-0.765837 0.080403 1.334905 0.301492 0.301492 0.904508 0.463229 0.939206
-0.765837 -0.080403 1.334905 0.301492 -0.301492 0.904508 0.489025 0.939708
0.688924 0.146435 1.334905 -0.648549 -0.149968 0.746239 0.984658 0.948924
0.765837 -0.080403 1.334905 -0.368755 -0.358806 0.857448 0.950333 0.936864
0.765837 0.080403 1.334905 -0.353557 0.280190 0.892453 0.972791 0.936881
-0.906431 -0.080403 1.334905 -0.301492 -0.301492 0.904508 0.487087 0.923999
-0.906431 0.080403 1.334905 -0.301492 0.301492 0.904508 0.464733 0.923521
0.944655 0.200793 1.334905 0.408094 0.086734 0.908780 0.984836 0.911297
0.906431 0.080403 1.334905 0.301492 0.301492 0.904508 0.972680 0.921619
0.906431 -0.080403 1.334905 0.278329 -0.342082 0.897488 0.950534 0.921717
0.906431 -0.080403 1.334905 0.278329 -0.342082 0.897488 0.893158 0.020775
0.906431 0.080403 1.334905 0.301492 0.301492 0.904508 0.920189 0.020775
0.906431 0.080403 2.898782 0.301492 0.301492 -0.904508 0.920189 0.243661
0.906431 -0.080403 2.898782 0.301492 -0.301492 -0.904508 0.893158 0.243661
-0.906431 0.080403 1.334905 -0.301492 0.301492 0.904508 0.893158 0.020775
-0.906431 -0.080403 1.334905 -0.301492 -0.301492 0.904508 0.920189 0.020775
-0.906431 -0.080403 2.898782 -0.301492 -0.301492 -0.904508 0.920189 0.243661
-0.906431 0.080403 2.898782 -0.301492 0.301492 -0.904508 0.893158 0.243661
0.906431 0.080403 1.334905 0.301492 0.301492 0.904508 0.924902 0.020775
0.765837 0.080403 1.334905 -0.353557 0.280190 0.892453 0.951538 0.020775
0.765837 0.080403 2.898782 -0.301492 0.301492 -0.904508 0.951538 0.243661
0.906431 0.080403 2.898782 0.301492 0.301492 -0.904508 0.924902 0.243661
0.765837 0.080403 1.334905 -0.353557 0.280190 0.892453 0.955359 0.243381
0.765837 -0.080403 1.334905 -0.368755 -0.358806 0.857448 0.983088 0.243381
0.765837 -0.080403 2.898782 -0.301492 -0.301492 -0.904508 0.983088 0.020495
0.765837 0.080403 2.898782 -0.301492 0.301492 -0.904508 0.955358 0.020495
0.765837 -0.080403 1.334905 -0.368755 -0.358806 0.857448 0.861648 0.020775
0.906431 -0.080403 1.334905 0.278329 -0.342082 0.897488 0.888068 0.020775
0.906431 -0.080403 2.898782 0.301492 -0.301492 -0.904508 0.888068 0.243661
0.765837 -0.080403 2.898782 -0.301492 -0.301492 -0.904508 0.861648 0.243661
-0.906431 -0.080403 1.334905 -0.301492 -0.301492 0.904508 0.924902 0.243661
-0.765837 -0.080403 1.334905 0.301492 -0.301492 0.904508 0.951538 0.243661
-0.765837 -0.080403 2.898782 0.301492 -0.301492 -0.904508 0.951538 0.020775
-0.906431 -0.080403 2.898782 -0.301492 -0.301492 -0.904508 0.924902 0.020775
-0.765837 -0.080403 1.334905 0.301492 -0.301492 0.904508 0.955358 0.243382
-0.765837 0.080403 1.334905 0.301492 0.301492 0.904508 0.983088 0.243382
-0.765837 0.080403 2.898782 0.301492 0.301492 -0.904508 0.983088 0.020496
-0.765837 -0.080403 2.898782 0.301492 -0.301492 -0.904508 0.955359 0.020496
-0.765837 0.080403 1.334905 0.301492 0.301492 0.904508 0.861648 0.020775
-0.906431 0.080403 1.334905 -0.301492 0.301492 0.904508 0.888068 0.020775
-0.906431 0.080403 2.898782 -0.301492 0.301492 -0.904508 0.888068 0.243661
-0.765837 0.080403 2.898782 0.301492 0.301492 -0.904508 0.861648 0.243661
-1.000000 -0.958101 2.159197 -0.546556 -0.314859 -0.775964 0.970583 0.335045
-1.000000 -0.958101 2.233133 -0.631428 -0.718467 0.291665 0.970577 0.358600
-1.000000 -0.239525 2.972243 -0.707083 -0.506974 0.492904 0.872286 0.460197
-1.000000 -0.239525 2.898782 -0.806055 0.230384 -0.545091 0.872286 0.436649
-1.000000 0.000000 3.218613 -0.575854 0.000000 0.817530 0.832973 0.500634
-1.000000 0.000000 3.144677 -1.000000 0.000000 0.000000 0.832973 0.477008
1.000000 -0.000000 3.144677 1.000000 0.000000 0.000000 0.832973 0.477008
1.000000 -0.000000 3.218613 0.575854 0.000000 0.817530 0.832973 0.500634
1.000000 -0.239525 2.972243 0.707083 -0.506974 0.492904 0.872286 0.460197
1.000000 -0.239525 2.898782 0.806055 0.230384 -0.545091 0.872286 0.436649
1.000000 -0.958101 2.233133 0.631428 -0.718467 0.291665 0.970577 0.358600
1.000000 -0.958101 2.159197 0.546556 -0.314859 -0.775964 0.970583 0.335045
-1.000000 0.239526 2.972243 -0.707083 0.506974 0.492904 0.793659 0.460198
-1.000000 0.239526 2.898782 -0.806055 -0.230384 -0.545091 0.793659 0.436649
-1.000000 0.958102 2.233133 -0.631428 0.718467 0.291665 0.695365 0.358601
-1.000000 0.958102 2.159197 -0.546556 0.314859 -0.775964 0.695358 0.335045
1.000000 0.958101 2.159197 0.546556 0.314859 -0.775964 0.695358 0.335045
1.000000 0.958101 2.233133 0.631428 0.718467 0.291665 0.695365 0.358601
1.000000 0.239525 2.972243 0.707083 0.506974 0.492904 0.793659 0.460198
1.000000 0.239525 2.898782 0.806055 -0.230384 -0.545091 0.793659 0.436649
0.765837 0.080403 2.898782 -0.301492 0.301492 -0.904508 0.747499 0.054274
0.765837 -0.080403 2.898782 -0.301492 -0.301492 -0.904508 0.774715 0.054084
-0.765837 -0.080403 2.898782 0.301492 -0.301492 -0.904508 0.775865 0.261736
-0.765837 0.080403 2.898782 0.301492 0.301492 -0.904508 0.748623 0.261956
0.906431 0.080403 2.898782 0.301492 0.301492 -0.904508 0.747428 0.030298
1.000000 0.239525 2.898782 0.806055 -0.230384 -0.545091 0.720335 0.014383
1.000000 -0.239525 2.898782 0.806055 0.230384 -0.545091 0.801775 0.014380
0.906431 -0.080403 2.898782 0.301492 -0.301492 -0.904508 0.774735 0.030277
-0.906431 -0.080403 2.898782 -0.301492 -0.301492 -0.904508 0.775873 0.285718
-1.000000 -0.239525 2.898782 -0.806055 0.230384 -0.545091 0.802953 0.301638
-1.000000 0.239526 2.898782 -0.806055 -0.230384 -0.545091 0.721591 0.301612
-0.906431 0.080403 2.898782 -0.301492 0.301492 -0.904508 0.748611 0.285735
-1.000000 0.958102 2.233133 -0.631428 0.718467 0.291665 0.369611 0.308530
-0.766230 0.958101 2.233133 0.000000 0.926542 0.376141 0.369611 0.265239
-0.766230 0.958101 2.159197 0.000000 0.375988 -0.926603 0.391252 0.265239
-1.000000 0.958102 2.159197 -0.546556 0.314859 -0.775964 0.391252 0.308530
0.766231 0.958101 2.233133 0.000000 0.926542 0.376141 0.369611 0.064132
0.766231 0.958101 2.159197 0.000000 0.376019 -0.926603 0.391252 0.064132
1.000000 0.958101 2.233133 0.631428 0.718467 0.291665 0.369611 0.021272
1.000000 0.958101 2.159197 0.546556 0.314859 -0.775964 0.391252 0.021272
1.000000 -0.958101 2.233133 0.631428 -0.718467 0.291665 0.412893 0.021272
0.766230 -0.958101 2.233133 0.000000 -0.926542 0.376141 0.412893 0.064132
0.766230 -0.958101 2.159197 0.000000 -0.375988 -0.926603 0.391252 0.064132
1.000000 -0.958101 2.159197 0.546556 -0.314859 -0.775964 0.391252 0.021272
-0.766231 -0.958101 2.233133 0.000000 -0.926542 0.376141 0.412893 0.265239
-0.766231 -0.958101 2.159197 0.000000 -0.376019 -0.926603 0.391252 0.265239
-1.000000 -0.958101 2.233133 -0.631428 -0.718467 0.291665 0.412893 0.308530
-1.000000 -0.958101 2.159197 -0.546556 -0.314859 -0.775964 0.391252 0.308530
1.000000 -0.958101 2.159197 0.546556 -0.314859 -0.775964 0.444954 0.299062
0.766230 -0.958101 2.159197 0.000000 -0.375988 -0.926603 0.444954 0.267244
0.766231 -0.239525 2.898782 0.000000 0.389325 -0.921079 0.585308 0.267244
1.000000 -0.239525 2.898782 0.806055 0.230384 -0.545091 0.585308 0.299062
-0.766231 -0.958101 2.159197 0.000000 -0.376019 -0.926603 0.444954 0.058661
-0.766231 -0.239525 2.898782 0.000000 0.389325 -0.921079 0.585308 0.058661
-1.000000 -0.958101 2.159197 -0.546556 -0.314859 -0.775964 0.444954 0.026843
-1.000000 -0.239525 2.898782 -0.806055 0.230384 -0.545091 0.585308 0.026843
1.000000 -0.000000 3.218613 0.575854 0.000000 0.817530 0.330559 0.241573
0.766231 0.000000 3.218613 0.000000 0.000000 1.000000 0.297791 0.241573
0.766231 -0.239525 2.972243 0.000000 -0.716971 0.697073 0.297791 0.193408
1.000000 -0.239525 2.972243 0.707083 -0.506974 0.492904 0.330559 0.193408
-0.766231 0.000000 3.218613 0.000000 0.000000 1.000000 0.082982 0.241573
-0.766231 -0.239525 2.972243 0.000000 -0.716971 0.697073 0.082982 0.193408
-1.000000 0.000000 3.218613 -0.575854 0.000000 0.817530 0.050214 0.241573
-1.000000 -0.239525 2.972243 -0.707083 -0.506974 0.492904 0.050214 0.193408
0.766230 -0.958101 2.233133 0.000000 -0.926542 0.376141 0.297791 0.048913
1.000000 -0.958101 2.233133 0.631428 -0.718467 0.291665 0.330559 0.048913
-0.766231 -0.958101 2.233133 0.000000 -0.926542 0.376141 0.082982 0.048912
-1.000000 -0.958101 2.233133 -0.631428 -0.718467 0.291665 0.050214 0.048912
1.000000 0.239525 2.898782 0.806055 -0.230384 -0.545091 0.585317 0.026934
0.766231 0.239525 2.898782 0.000000 -0.389325 -0.921079 0.585317 0.058752
0.766231 0.958101 2.159197 0.000000 0.376019 -0.926603 0.444963 0.058752
1.000000 0.958101 2.159197 0.546556 0.314859 -0.775964 0.444963 0.026934
-0.766231 0.239525 2.898782 0.000000 -0.389325 -0.921079 0.585317 0.267335
-0.766230 0.958101 2.159197 0.000000 0.375988 -0.926603 0.444963 0.267335
-1.000000 0.239526 2.898782 -0.806055 -0.230384 -0.545091 0.585317 0.299154
-1.000000 0.958102 2.159197 -0.546556 0.314859 -0.775964 0.444963 0.299154
1.000000 0.958101 2.233133 0.631428 0.718467 0.291665 0.330559 0.434234
0.766231 0.958101 2.233133 0.000000 0.926542 0.376141 0.297791 0.434234
0.766231 0.239525 2.972243 0.000000 0.716971 0.697073 0.297791 0.289738
1.000000 0.239525 2.972243 0.707083 0.506974 0.492904 0.330559 0.289738
-0.766230 0.958101 2.233133 0.000000 0.926542 0.376141 0.082982 0.434234
-0.766231 0.239525 2.972243 0.000000 0.716971 0.697073 0.082982 0.289738
-1.000000 0.958102 2.233133 -0.631428 0.718467 0.291665 0.050214 0.434234
-1.000000 0.239526 2.972243 -0.707083 0.506974 0.492904 0.050214 0.289738
-0.766231 0.239525 2.898782 0.000000 -0.389325 -0.921079 0.721627 0.261916
-0.766231 -0.239525 2.898782 0.000000 0.389325 -0.921079 0.803056 0.261876
0.766231 0.239525 2.898782 0.000000 -0.389325 -0.921079 0.720291 0.054170
0.766231 -0.239525 2.898782 0.000000 0.389325 -0.921079 0.801733 0.054124
0.398928 -0.580444 0.009845 0.000000 0.000000 1.000000 0.961248 0.534651
-0.383597 -0.590688 0.009845 0.000000 0.000000 1.000000 0.907477 0.534651
-0.128351 -0.692521 0.009845 0.000000 0.000000 1.000000 0.924922 0.527425
0.146435 -0.688924 0.009845 0.000000 0.000000 1.000000 0.943804 0.527425
0.590688 -0.383597 0.009845 0.000000 0.000000 1.000000 0.974600 0.548002
-0.580444 -0.398928 0.009845 0.000000 0.000000 1.000000 0.894125 0.548002
0.692521 -0.128351 0.009845 0.000000 0.000000 1.000000 0.981826 0.565447
-0.688924 -0.146435 0.009845 0.000000 0.000000 1.000000 0.886899 0.565447
0.688924 0.146435 0.009845 0.000000 0.000000 1.000000 0.981826 0.584329
-0.692521 0.128351 0.009845 0.000000 0.000000 1.000000 0.886899 0.584329
0.580444 0.398928 0.009845 0.000000 0.000000 1.000000 0.974600 0.601774
-0.590688 0.383597 0.009845 0.000000 0.000000 1.000000 0.894125 0.601774
0.383597 0.590688 0.009845 0.000000 0.000000 1.000000 0.961249 0.615126
-0.398928 0.580444 0.009845 0.000000 0.000000 1.000000 0.907477 0.615126
0.128352 0.692521 0.009845 0.000000 0.000000 1.000000 0.943804 0.622352
-0.146435 0.688924 0.009845 0.000000 0.000000 1.000000 0.924922 0.622352
0.383597 0.590688 0.997015 -0.544633 -0.838649 0.000000 0.134782 0.982236
0.580444 0.398928 0.997015 -0.824122 -0.566393 0.000000 0.076709 0.982236
0.688924 0.146435 0.997015 -0.975860 -0.218177 0.008698 0.016732 0.982236
0.688924 0.146435 0.997015 -0.975860 -0.218177 0.008698 0.984658 0.982236
0.692521 -0.128351 0.997015 -0.983093 0.182287 0.016480 0.933556 0.982236
0.590688 -0.383597 0.997015 -0.833522 0.552416 0.007691 0.878813 0.982236
0.398928 -0.580444 0.997015 -0.566393 0.824122 0.000000 0.821691 0.982236
0.146435 -0.688924 0.997015 -0.207892 0.978118 0.000000 0.762420 0.982236
-0.128351 -0.692521 0.997015 0.182226 0.983245 0.000000 0.701813 0.982236
-0.383597 -0.590688 0.997015 0.544633 0.838649 0.000000 0.638500 0.982236
-0.580444 -0.398928 0.997015 0.824122 0.566393 0.000000 0.574147 0.982236
-0.688924 -0.146435 0.997015 0.978118 0.207892 0.000000 0.506685 0.982236
-0.692521 0.128351 0.997015 0.983245 -0.182226 0.000000 0.443127 0.982236
-0.590688 0.383597 0.997015 0.838649 -0.544633 0.000000 0.380371 0.982236
-0.398928 0.580444 0.997015 0.566393 -0.824122 0.000000 0.316642 0.982236
-0.146435 0.688924 0.997015 0.207892 -0.978118 0.000000 0.255094 0.982236
0.128352 0.692521 0.997015 -0.182226 -0.983245 0.000000 0.193949 0.982236
4 0 1 2 3
4 4 5 1 0
4 6 7 8 9
4 10 11 9 8
4 12 13 11 10
4 14 15 13 12
4 16 17 18 19
4 7 6 17 16
4 20 21 22 23
4 24 20 23 25
4 24 25 26 27
4 28 27 26 29
4 30 28 29 31
4 30 31 32 33
4 33 32 34 35
4 36 35 34 37
4 38 36 37 39
4 40 38 39 41
4 42 40 41 43
4 22 21 44 45
4 46 47 48 49
4 50 51 47 46
4 51 50 52 53
4 54 55 56 57
4 54 58 59 55
4 59 58 60 61
4 61 60 62 63
4 63 62 64 65
4 48 66 67 49
4 66 68 69 67
4 70 71 72 73
4 74 70 73 75
4 76 74 75 77
4 78 76 77 79
4 80 81 82 83
4 71 80 83 72
4 73 72 84 85
4 75 73 85 86
4 77 75 86 87
4 79 77 87 88
4 83 82 89 90
4 72 83 90 84
4 85 84 91 92
4 86 85 92 93
4 87 86 93 94
4 88 87 94 95
4 96 97 90 89
4 97 91 84 90
3 98 99 95
3 100 101 94
4 98 95 94 101
4 102 103 104 105
4 106 107 103 102
4 108 109 107 106
4 110 111 109 108
4 112 113 114 115
4 113 112 105 104
4 116 117 118 119
4 120 116 119 121
4 122 120 121 123
4 124 122 123 125
4 126 124 125 127
4 128 126 127 129
4 130 128 129 131
4 132 133 134 135
4 136 132 135 137
4 138 136 137 139
4 140 138 139 141
4 142 140 141 143
4 144 142 143 145
4 146 144 145 147
4 148 146 147 149
4 118 117 148 149
4 150 151 152 153
4 153 152 154 155
4 155 154 156 157
4 157 156 158 159
4 159 158 160 161
4 161 160 162 163
4 163 162 164 165
4 166 167 168 169
4 169 168 170 171
4 171 170 172 173
4 173 172 174 175
4 175 174 176 177
4 177 176 178 179
4 179 178 180 181
4 182 183 181 180
4 183 182 151 150
4 184 185 186 187
4 187 188 189 184
4 190 191 192 193
4 191 194 195 192
4 194 196 197 195
4 196 198 199 197
4 198 200 201 199
4 200 202 203 201
4 202 204 205 203
4 204 206 207 205
4 206 208 209 207
4 208 210 211 209
4 210 212 213 211
4 212 214 215 213
4 214 216 217 215
4 185 217 216 186
4 218 219 220 221
4 219 222 223 220
4 224 225 226 227
4 225 228 229 226
4 228 230 231 229
4 230 232 233 231
4 232 234 235 233
4 234 236 237 235
4 236 238 239 237
4 238 240 241 239
4 240 242 243 241
4 242 244 245 243
4 244 246 247 245
4 246 248 249 247
4 248 250 251 249
4 250 218 221 251
4 252 253 254 255
4 256 252 255 257
4 258 259 260 261
4 262 258 261 263
4 264 262 263 265
4 266 264 265 267
4 268 266 267 269
4 270 268 269 271
4 272 270 271 273
4 274 275 276 277
4 278 274 277 279
4 280 278 279 281
4 282 280 281 283
4 253 282 283 254
4 273 276 284 285
4 286 260 287 288
4 275 272 289 290
4 259 291 292 293
4 294 295 296 297
4 298 299 300 301
4 302 303 304 305
4 306 307 308 309
4 310 311 312 313
4 314 315 316 317
4 318 319 320 321
4 322 323 324 325
4 326 327 328 329
4 329 328 330 331
4 332 333 334 335
4 335 334 336 337
4 331 330 338 339
4 339 338 340 341
4 342 343 344 345
4 345 344 333 332
3 332 335 345
3 331 339 329
4 346 347 348 349
4 350 351 352 353
4 354 355 356 357
4 358 359 360 361
4 359 362 363 360
4 362 364 365 363
4 366 367 368 369
4 367 370 371 368
4 370 372 373 371
4 374 375 376 377
4 375 378 379 376
4 378 380 381 379
4 382 383 384 385
4 383 386 387 384
4 386 388 389 387
4 385 384 390 391
4 384 387 392 390
4 387 389 393 392
4 394 395 396 397
4 395 398 399 396
4 398 400 401 399
4 402 403 404 405
4 403 406 407 404
4 406 408 409 407
4 405 404 383 382
4 404 407 386 383
4 407 409 388 386
4 357 356 410 349
4 354 348 411 355
4 346 349 410 412
4 350 346 412 351
4 353 352 413 347
4 347 413 411 348
4 414 415 416 417
4 418 419 415 414
4 420 421 419 418
4 422 423 421 420
4 424 425 423 422
4 426 427 425 424
4 428 429 427 426
4 254 430 431 255
4 255 431 432 257
4 286 433 434 260
4 260 434 435 261
4 261 435 436 263
4 263 436 437 265
4 265 437 438 267
4 267 438 439 269
4 269 439 440 271
4 271 440 441 273
4 273 441 442 276
4 276 442 443 277
4 277 443 444 279
4 279 444 445 281
4 281 445 446 283
4 283 446 430 254
4 220 187 186 221
4 223 188 187 220
4 226 191 190 227
4 229 194 191 226
4 231 196 194 229
4 233 198 196 231
4 235 200 198 233
4 237 202 200 235
4 239 204 202 237
4 241 206 204 239
4 243 208 206 241
4 245 210 208 243
4 247 212 210 245
4 249 214 212 247
4 251 216 214 249
4 216 251 221 186
4 218 253 252 219
4 256 222 219 252
4 259 225 224 291
4 258 228 225 259
4 262 230 228 258
4 264 232 230 262
4 266 234 232 264
4 268 236 234 266
4 270 238 236 268
4 272 240 238 270
4 275 242 240 272
4 274 244 242 275
4 278 246 244 274
4 280 248 246 278
4 282 250 248 280
4 250 282 253 218
4 293 287 260 259
4 286 288 292 291
4 273 285 289 272
4 290 284 276 275
